<svg width="204" height="77" viewBox="0 0 204 77" fill="none" xmlns="http://www.w3.org/2000/svg">
<path d="M45.08 31.44L62.16 31.44L62.16 48L55.12 48L54.28 40.92C53.48 43.4533 52.0533 45.3333 50 46.56C47.9467 47.7867 45.44 48.4 42.48 48.4C39.7867 48.4 37.3867 47.8 35.28 46.6C33.2 45.4 31.56 43.68 30.36 41.44C29.1867 39.2 28.6 36.5867 28.6 33.6C28.6 28.8267 30.0267 25.0533 32.88 22.28C35.7333 19.5067 40.1733 18.12 46.2 18.12C49.64 18.12 52.6667 18.68 55.28 19.8C57.92 20.92 60.16 22.6533 62 25C60.8 25.6133 58.4533 26.84 54.96 28.68L53.96 29.24C52.92 28.2 51.7067 27.4267 50.32 26.92C48.9333 26.3867 47.4667 26.12 45.92 26.12C43.36 26.12 41.4533 26.8 40.2 28.16C38.9467 29.4933 38.32 31.1467 38.32 33.12C38.32 35.2533 38.9867 36.9733 40.32 38.28C41.68 39.5867 43.7467 40.24 46.52 40.24C47.72 40.24 48.88 40.0667 50 39.72C51.1467 39.3733 52.1067 38.7733 52.88 37.92L45.08 37.92L45.08 31.44ZM74.7578 32C74.7311 33.6 74.7178 36.0533 74.7178 39.36C74.7178 43.3333 74.7445 46.2133 74.7978 48L65.3578 48L65.3978 43.48C65.4511 38.52 65.4778 34.6933 65.4778 32C65.4778 29.44 65.4511 25.8133 65.3978 21.12L65.3578 16.8L74.7978 16.8C74.7445 20.5867 74.7178 23.68 74.7178 26.08C74.7178 28.7467 74.7311 30.72 74.7578 32ZM83.3741 23.8C81.6941 23.8 80.4407 23.3867 79.6141 22.56C78.8141 21.7333 78.4141 20.6533 78.4141 19.32C78.4141 18.0133 78.8141 16.9333 79.6141 16.08C80.4407 15.2267 81.6941 14.8 83.3741 14.8C84.9741 14.8 86.2007 15.24 87.0541 16.12C87.9074 16.9733 88.3341 18.04 88.3341 19.32C88.3341 20.6533 87.9207 21.7333 87.0941 22.56C86.2674 23.3867 85.0274 23.8 83.3741 23.8ZM78.7341 48C78.9207 43.7067 79.0141 40.16 79.0141 37.36C79.0141 34.0267 78.9074 30.2933 78.6941 26.16L88.2941 26.16C88.0807 30.1333 87.9741 33.8667 87.9741 37.36C87.9741 40.2933 88.0674 43.84 88.2541 48L78.7341 48ZM110.04 33.32C107.587 33.16 105.347 33.04 103.32 32.96L103.28 37.2C103.28 38.64 103.587 39.7733 104.2 40.6C104.84 41.4 105.96 41.8 107.56 41.8C108.174 41.8 108.76 41.7467 109.32 41.64C109.214 42.6267 109.16 43.6267 109.16 44.64C109.16 45.12 109.187 46.2133 109.24 47.92C108.067 48.1333 107.08 48.2667 106.28 48.32C105.48 48.3733 104.44 48.4 103.16 48.4C100.04 48.4 97.827 47.6533 96.5203 46.16C95.2403 44.64 94.6003 42.5333 94.6003 39.84L94.6403 33.08C93.387 33.1333 92.0803 33.2133 90.7203 33.32L90.7203 26.24C92.107 26.24 93.2803 25.8 94.2403 24.92C95.2003 24.04 95.7736 22.9867 95.9603 21.76L106.84 21.76C105.48 23.6267 103.974 25.12 102.32 26.24L110.04 26.24L110.04 33.32ZM120.548 37.08C120.601 38.44 121.028 39.5333 121.828 40.36C122.655 41.1867 123.868 41.6 125.468 41.6C126.348 41.6 127.135 41.44 127.828 41.12C128.521 40.7733 129.161 40.2667 129.748 39.6C132.015 40.48 134.668 41.24 137.708 41.88C136.828 43.9333 135.335 45.5333 133.228 46.68C131.148 47.8267 128.441 48.4 125.108 48.4C120.655 48.4 117.361 47.36 115.228 45.28C113.095 43.2 112.028 40.4667 112.028 37.08C112.028 33.6933 113.095 30.96 115.228 28.88C117.361 26.8 120.655 25.76 125.108 25.76C128.441 25.76 131.148 26.3333 133.228 27.48C135.335 28.6267 136.828 30.2267 137.708 32.28C135.335 32.7867 132.681 33.5467 129.748 34.56C129.161 33.8933 128.521 33.4 127.828 33.08C127.135 32.7333 126.348 32.56 125.468 32.56C123.868 32.56 122.655 32.9733 121.828 33.8C121.028 34.6267 120.601 35.72 120.548 37.08ZM174.229 18.96C174.043 23.4667 173.949 28.3067 173.949 33.48C173.949 38.6533 174.043 43.4933 174.229 48L164.829 48L164.829 37.12L150.109 37.12L150.109 48L140.709 48C140.923 42.8267 141.029 37.9867 141.029 33.48C141.029 28.9733 140.923 24.1333 140.709 18.96L150.109 18.96L150.109 29.84L164.829 29.84L164.829 18.96L174.229 18.96Z" fill="white"/>
<path d="M16.416 25.152L40.3617 25.152" stroke="#3A2262" stroke-width="8" stroke-linecap="round"/>
<path d="M62.5337 55.5171L87.3663 55.5171" stroke="#3A2262" stroke-width="8" stroke-linecap="round"/>
<path d="M90.0269 36.194L102.443 36.194" stroke="#3A2262" stroke-width="8" stroke-linecap="round"/>
<path d="M117.521 46.3156L127.276 46.3156" stroke="#3A2262" stroke-width="8" stroke-linecap="round"/>
<path d="M145.9 34.3536L166.299 34.3536" stroke="#3A2262" stroke-width="8" stroke-linecap="round"/>
<path d="M176.054 45.3954L189.357 45.3954" stroke="#3A2262" stroke-width="8" stroke-linecap="round"/>
<path d="M177.828 22.3916L188.471 22.3916" stroke="#3A2262" stroke-width="8" stroke-linecap="round"/>
<path d="M122.842 23.3118L136.145 23.3118" stroke="#3A2262" stroke-width="8" stroke-linecap="round"/>
<path d="M32.3804 55.5171L49.231 55.5171" stroke="#3A2262" stroke-width="8" stroke-linecap="round"/>
<path d="M98.0093 72.08L111.312 72.08" stroke="white" stroke-width="8" stroke-linecap="round"/>
<path d="M136.145 59.1978L152.109 59.1978" stroke="white" stroke-width="8" stroke-linecap="round"/>
<path d="M94.4614 12.2699L103.33 12.2699" stroke="white" stroke-width="8" stroke-linecap="round"/>
<path d="M45.6831 7.66919L55.4388 7.66919" stroke="white" stroke-width="8" stroke-linecap="round"/>
<path d="M21.7378 73L29.7197 73" stroke="white" stroke-width="8" stroke-linecap="round"/>
<path d="M4 43.5552L9.32127 43.5552" stroke="white" stroke-width="8" stroke-linecap="round"/>
<path d="M191.131 35.2738L200 35.2738" stroke="white" stroke-width="8" stroke-linecap="round"/>
<path d="M180.488 63.7986L189.357 63.7986" stroke="white" stroke-width="8" stroke-linecap="round"/>
<path d="M147.674 4.90869L160.977 4.90869" stroke="white" stroke-width="8" stroke-linecap="round"/>
</svg>
